<svg viewBox="0 0 18 18" xmlns="http://www.w3.org/2000/svg"><g fill="none" fillRule="evenodd"><path d="M0 0h18v18H0z"/><path d="M15.364 2.636A8.941 8.941 0 009 0a8.941 8.941 0 00-6.364 2.636A8.941 8.941 0 000 9c0 2.404.936 4.664 2.636 6.364A8.94 8.94 0 009 18a8.941 8.941 0 006.364-2.636A8.941 8.941 0 0018 9a8.941 8.941 0 00-2.636-6.364zM9 8.437a2.534 2.534 0 012.531 2.532 2.535 2.535 0 01-1.84 2.434.177.177 0 00-.129.17v.474a.573.573 0 01-.535.577.563.563 0 01-.59-.562v-.49a.176.176 0 00-.128-.169 2.535 2.535 0 01-1.84-2.419.572.572 0 01.546-.578.562.562 0 01.579.563c0 .808.686 1.46 1.507 1.402a1.412 1.412 0 001.302-1.302A1.408 1.408 0 009 9.562a2.534 2.534 0 01-2.531-2.53c0-1.157.779-2.133 1.84-2.435a.177.177 0 00.129-.17v-.474c0-.303.232-.563.535-.577a.563.563 0 01.59.562v.49c0 .079.052.147.128.169a2.535 2.535 0 011.84 2.419.572.572 0 01-.546.578.562.562 0 01-.579-.563c0-.808-.686-1.46-1.507-1.402A1.412 1.412 0 007.597 6.93 1.408 1.408 0 009 8.437z" fill="#293651" fillRule="nonzero"/></g></svg>